<?xml version="1.0" encoding="UTF-8"?>
<svg width="80px" height="80px" viewBox="0 0 80 80" version="1.1" xmlns="http://www.w3.org/2000/svg" xmlns:xlink="http://www.w3.org/1999/xlink">
    <!-- Generator: Sketch 43.2 (39069) - http://www.bohemiancoding.com/sketch -->
    <title>superblink_logo</title>
    <desc>Created with Sketch.</desc>
    <defs></defs>
    <g id="Page-1" stroke="none" stroke-width="1" fill="none" fill-rule="evenodd">
        <g id="superblink_logo">
            <g id="Superblink_logo-09">
                <path d="M79.2910092,39.8319266 C79.2910092,61.613211 61.6352294,79.2704587 39.853211,79.2704587 C18.0711927,79.2704587 0.414678899,61.613211 0.414678899,39.8319266 C0.414678899,18.0506422 18.0711927,0.39412844 39.853211,0.39412844 C61.6352294,0.39412844 79.2910092,18.0506422 79.2910092,39.8319266" id="Fill-1" fill="#C64A4F"></path>
                <path d="M14.6113761,55.4179817 C13.7849541,54.8704587 13.1831193,53.84 13.1478899,52.6950459 C13.092844,50.7889908 14.573211,49.266055 16.4807339,49.2095413 C17.4355963,49.1823853 18.1137615,49.4965138 18.599633,49.8157798 C21.1787156,51.5992661 23.9772477,52.6642202 27.2176147,52.5688073 C30.2216514,52.4792661 31.9977982,51.2352294 31.9412844,49.2807339 L31.9383486,49.1853211 C31.8825688,47.3262385 30.7111927,46.4066055 25.0921101,45.1405505 C18.3214679,43.6220183 13.9295413,41.8906422 13.7343119,35.2653211 L13.7306422,35.1684404 C13.5552294,29.1155963 18.2987156,24.9688073 25.1148624,24.7706422 C29.1655046,24.6510092 32.7251376,25.5955963 35.7827523,27.412844 C36.6062385,27.8678899 37.4480734,28.8433028 37.4884404,30.2752294 C37.5449541,32.1805505 36.0631193,33.7034862 34.1563303,33.7585321 C33.4407339,33.7798165 32.8631193,33.6073394 32.2818349,33.2895413 C29.8091743,31.9317431 27.4965138,31.1882569 25.2117431,31.2550459 C22.3977982,31.3372477 20.9563303,32.666422 21.0025688,34.2869725 L21.0084404,34.3831193 C21.0722936,36.5761468 22.5225688,37.2484404 28.333945,38.5577982 C35.1537615,40.1218349 39.0385321,42.4418349 39.2095413,48.2568807 L39.2124771,48.3522936 C39.4069725,54.9754128 34.4631193,58.8425688 27.266055,59.0554128 C22.8807339,59.1816514 18.4080734,57.9794495 14.6113761,55.4179817" id="Fill-2" fill="#FFFFFF"></path>
                <path d="M59.7563303,45.7827523 L59.7511927,45.693211 C59.4436697,41.7423853 56.5776147,39.3277064 53.4238532,39.5713761 C50.2730275,39.8150459 47.8546789,42.6370642 48.1614679,46.5893578 L48.1673394,46.6781651 C48.4726606,50.6311927 51.2954128,53.0473394 54.4477064,52.8036697 C57.6007339,52.56 60.0653211,49.7776147 59.7563303,45.7827523 Z M40.1592661,29.7416514 C40.0117431,27.8781651 41.4062385,26.2510092 43.2704587,26.1078899 C45.1354128,25.9633028 46.7633028,27.3548624 46.907156,29.2205505 L47.5955963,38.146055 C49.0678899,35.7988991 51.2073394,33.9809174 54.7133945,33.7086239 C60.2634862,33.2792661 65.8840367,37.2220183 66.4983486,45.1721101 L66.506422,45.2609174 C67.12,53.2088073 62.2620183,57.9611009 56.6231193,58.3977982 C53.0282569,58.6744954 50.6774312,57.2051376 48.9306422,55.4187156 L48.9350459,55.4634862 C49.0766972,57.2836697 47.6836697,58.9093578 45.8201835,59.053945 C43.9537615,59.1985321 42.3273394,57.8062385 42.1827523,55.9412844 L40.1592661,29.7416514 L40.1592661,29.7416514 Z" id="Fill-3" fill="#FFFFFF"></path>
                <polyline id="Fill-4" fill="#FFFFFF" points="56.9900917 14.9761468 59.4377982 20.7992661 64.8293578 20.6730275 60.4205505 24.8278899 61.8370642 29.8877064 57.2418349 26.4330275 52.1445872 29.8877064 53.7966972 24.4711927 49.1493578 20.6730275 55.4598165 20.4924771 56.9900917 14.9761468"></polyline>
            </g>
        </g>
    </g>
</svg>